<svg width="1024" height="186" viewBox="0 0 1024 186" fill="none" xmlns="http://www.w3.org/2000/svg">
<path d="M39.754 144.705C35.9547 136.643 32.2017 128.256 28.495 119.546C24.7883 110.835 21.267 102.217 17.931 93.6917C14.595 85.1664 11.4907 77.0117 8.618 69.2277C5.838 61.4437 3.42867 54.4937 1.39 48.3777H25.298C27.1513 53.9377 29.1437 59.961 31.275 66.4477C33.499 72.8417 35.723 79.2357 37.947 85.6297C40.2637 92.0237 42.4877 98.1397 44.619 103.978C46.7503 109.816 48.7427 114.866 50.596 119.129C52.3567 114.866 54.3027 109.816 56.434 103.978C58.658 98.1397 60.882 92.0237 63.106 85.6297C65.4227 79.2357 67.6467 72.8417 69.778 66.4477C72.002 59.961 74.0407 53.9377 75.894 48.3777H98.968C96.8367 54.4937 94.381 61.4437 91.601 69.2277C88.821 77.0117 85.763 85.1664 82.427 93.6917C79.091 102.217 75.5697 110.835 71.863 119.546C68.1563 128.256 64.4033 136.643 60.604 144.705H39.754ZM166.835 144.705C165.815 141.369 164.657 137.94 163.36 134.419C162.155 130.897 160.95 127.376 159.746 123.855H122.216C121.011 127.376 119.76 130.897 118.463 134.419C117.258 137.94 116.146 141.369 115.127 144.705H92.6088C96.2228 134.326 99.6514 124.735 102.895 115.932C106.138 107.128 109.289 98.8347 112.347 91.0507C115.497 83.2667 118.555 75.8997 121.521 68.9497C124.579 61.907 127.729 55.0497 130.973 48.3777H151.684C154.834 55.0497 157.939 61.907 160.997 68.9497C164.055 75.8997 167.113 83.2667 170.171 91.0507C173.321 98.8347 176.518 107.128 179.762 115.932C183.005 124.735 186.434 134.326 190.048 144.705H166.835ZM140.842 70.2007C140.378 71.5907 139.683 73.4904 138.757 75.8997C137.83 78.309 136.764 81.089 135.56 84.2397C134.355 87.3904 133.011 90.8654 131.529 94.6647C130.139 98.464 128.702 102.449 127.22 106.619H154.603C153.12 102.449 151.684 98.464 150.294 94.6647C148.904 90.8654 147.56 87.3904 146.263 84.2397C145.058 81.089 143.992 78.309 143.066 75.8997C142.139 73.4904 141.398 71.5907 140.842 70.2007ZM231.367 128.164C234.425 128.164 236.927 127.932 238.873 127.469C240.911 126.913 242.533 126.218 243.738 125.384C244.942 124.457 245.776 123.391 246.24 122.187C246.703 120.982 246.935 119.638 246.935 118.156C246.935 115.005 245.452 112.41 242.487 110.372C239.521 108.24 234.425 105.97 227.197 103.561C224.046 102.449 220.895 101.198 217.745 99.8077C214.594 98.325 211.768 96.518 209.266 94.3867C206.764 92.1627 204.725 89.5217 203.15 86.4637C201.574 83.313 200.787 79.5137 200.787 75.0657C200.787 70.6177 201.621 66.633 203.289 63.1117C204.957 59.4977 207.32 56.4397 210.378 53.9377C213.436 51.4357 217.142 49.536 221.498 48.2387C225.853 46.8487 230.764 46.1537 236.232 46.1537C242.718 46.1537 248.325 46.8487 253.051 48.2387C257.777 49.6287 261.669 51.1577 264.727 52.8257L258.472 69.9227C255.784 68.5327 252.773 67.328 249.437 66.3087C246.193 65.1967 242.255 64.6407 237.622 64.6407C232.432 64.6407 228.679 65.382 226.363 66.8647C224.139 68.2547 223.027 70.4324 223.027 73.3977C223.027 75.1584 223.444 76.641 224.278 77.8457C225.112 79.0504 226.27 80.1624 227.753 81.1817C229.328 82.1084 231.089 82.9887 233.035 83.8227C235.073 84.564 237.297 85.3517 239.707 86.1857C244.711 88.039 249.066 89.8924 252.773 91.7457C256.479 93.5064 259.537 95.5914 261.947 98.0007C264.449 100.41 266.302 103.236 267.507 106.48C268.711 109.723 269.314 113.661 269.314 118.295C269.314 127.283 266.163 134.28 259.862 139.284C253.56 144.195 244.062 146.651 231.367 146.651C227.104 146.651 223.258 146.373 219.83 145.817C216.401 145.353 213.343 144.751 210.656 144.01C208.061 143.268 205.791 142.481 203.845 141.647C201.991 140.813 200.416 140.025 199.119 139.284L205.235 122.048C208.107 123.623 211.629 125.059 215.799 126.357C220.061 127.561 225.251 128.164 231.367 128.164ZM329.922 146.651C314.261 146.651 302.307 142.295 294.06 133.585C285.905 124.874 281.828 112.503 281.828 96.4717C281.828 88.5024 283.079 81.4134 285.581 75.2047C288.083 68.9034 291.512 63.6214 295.867 59.3587C300.222 55.0034 305.412 51.7137 311.435 49.4897C317.458 47.2657 323.991 46.1537 331.034 46.1537C335.111 46.1537 338.818 46.478 342.154 47.1267C345.49 47.6827 348.409 48.3777 350.911 49.2117C353.413 49.953 355.498 50.7407 357.166 51.5747C358.834 52.4087 360.039 53.0574 360.78 53.5207L354.525 71.0347C351.56 69.4594 348.085 68.1157 344.1 67.0037C340.208 65.8917 335.76 65.3357 330.756 65.3357C327.42 65.3357 324.13 65.8917 320.887 67.0037C317.736 68.1157 314.91 69.9227 312.408 72.4247C309.999 74.834 308.053 77.9847 306.57 81.8767C305.087 85.7687 304.346 90.4947 304.346 96.0547C304.346 100.503 304.809 104.673 305.736 108.565C306.755 112.364 308.331 115.654 310.462 118.434C312.686 121.214 315.559 123.438 319.08 125.106C322.601 126.681 326.864 127.469 331.868 127.469C335.019 127.469 337.845 127.283 340.347 126.913C342.849 126.542 345.073 126.125 347.019 125.662C348.965 125.106 350.679 124.503 352.162 123.855C353.645 123.206 354.988 122.604 356.193 122.048L362.17 139.423C359.112 141.276 354.803 142.944 349.243 144.427C343.683 145.909 337.243 146.651 329.922 146.651ZM390.81 96.4717C390.81 101.198 391.366 105.46 392.478 109.26C393.683 113.059 395.351 116.349 397.482 119.129C399.706 121.816 402.394 123.901 405.544 125.384C408.695 126.866 412.309 127.608 416.386 127.608C420.371 127.608 423.939 126.866 427.089 125.384C430.333 123.901 433.02 121.816 435.151 119.129C437.375 116.349 439.043 113.059 440.155 109.26C441.36 105.46 441.962 101.198 441.962 96.4717C441.962 91.7457 441.36 87.483 440.155 83.6837C439.043 79.7917 437.375 76.502 435.151 73.8147C433.02 71.0347 430.333 68.9034 427.089 67.4207C423.939 65.938 420.371 65.1967 416.386 65.1967C412.309 65.1967 408.695 65.9844 405.544 67.5597C402.394 69.0424 399.706 71.1737 397.482 73.9537C395.351 76.641 393.683 79.9307 392.478 83.8227C391.366 87.622 390.81 91.8384 390.81 96.4717ZM464.341 96.4717C464.341 104.719 463.09 111.993 460.588 118.295C458.179 124.503 454.843 129.739 450.58 134.002C446.318 138.172 441.221 141.322 435.29 143.454C429.452 145.585 423.151 146.651 416.386 146.651C409.807 146.651 403.598 145.585 397.76 143.454C391.922 141.322 386.826 138.172 382.47 134.002C378.115 129.739 374.686 124.503 372.184 118.295C369.682 111.993 368.431 104.719 368.431 96.4717C368.431 88.2244 369.729 80.9964 372.323 74.7877C374.918 68.4864 378.393 63.2044 382.748 58.9417C387.196 54.679 392.293 51.482 398.038 49.3507C403.876 47.2194 409.992 46.1537 416.386 46.1537C422.966 46.1537 429.174 47.2194 435.012 49.3507C440.85 51.482 445.947 54.679 450.302 58.9417C454.658 63.2044 458.086 68.4864 460.588 74.7877C463.09 80.9964 464.341 88.2244 464.341 96.4717ZM547.052 144.705C540.843 133.677 534.125 122.789 526.897 112.04C519.669 101.29 511.978 91.1434 503.823 81.5987V144.705H482.417V48.3777H500.07C503.128 51.4357 506.51 55.1887 510.217 59.6367C513.924 64.0847 517.677 68.857 521.476 73.9537C525.368 78.9577 529.214 84.1934 533.013 89.6607C536.812 95.0354 540.38 100.225 543.716 105.229V48.3777H565.261V144.705H547.052ZM631.405 146.651C615.745 146.651 603.791 142.295 595.543 133.585C587.389 124.874 583.311 112.503 583.311 96.4717C583.311 88.5024 584.562 81.4134 587.064 75.2047C589.566 68.9034 592.995 63.6214 597.35 59.3587C601.706 55.0034 606.895 51.7137 612.918 49.4897C618.942 47.2657 625.475 46.1537 632.517 46.1537C636.595 46.1537 640.301 46.478 643.637 47.1267C646.973 47.6827 649.892 48.3777 652.394 49.2117C654.896 49.953 656.981 50.7407 658.649 51.5747C660.317 52.4087 661.522 53.0574 662.263 53.5207L656.008 71.0347C653.043 69.4594 649.568 68.1157 645.583 67.0037C641.691 65.8917 637.243 65.3357 632.239 65.3357C628.903 65.3357 625.614 65.8917 622.37 67.0037C619.22 68.1157 616.393 69.9227 613.891 72.4247C611.482 74.834 609.536 77.9847 608.053 81.8767C606.571 85.7687 605.829 90.4947 605.829 96.0547C605.829 100.503 606.293 104.673 607.219 108.565C608.239 112.364 609.814 115.654 611.945 118.434C614.169 121.214 617.042 123.438 620.563 125.106C624.085 126.681 628.347 127.469 633.351 127.469C636.502 127.469 639.328 127.283 641.83 126.913C644.332 126.542 646.556 126.125 648.502 125.662C650.448 125.106 652.163 124.503 653.645 123.855C655.128 123.206 656.472 122.604 657.676 122.048L663.653 139.423C660.595 141.276 656.286 142.944 650.726 144.427C645.166 145.909 638.726 146.651 631.405 146.651ZM677.614 144.705V48.3777H742.666V66.5867H699.298V85.4907H737.801V103.283H699.298V126.496H745.863V144.705H677.614ZM826.267 126.079V144.705H761.91V48.3777H783.594V126.079H826.267ZM855.727 96.4717C855.727 101.198 856.283 105.46 857.395 109.26C858.6 113.059 860.268 116.349 862.399 119.129C864.623 121.816 867.311 123.901 870.461 125.384C873.612 126.866 877.226 127.608 881.303 127.608C885.288 127.608 888.856 126.866 892.006 125.384C895.25 123.901 897.937 121.816 900.068 119.129C902.292 116.349 903.96 113.059 905.072 109.26C906.277 105.46 906.879 101.198 906.879 96.4717C906.879 91.7457 906.277 87.483 905.072 83.6837C903.96 79.7917 902.292 76.502 900.068 73.8147C897.937 71.0347 895.25 68.9034 892.006 67.4207C888.856 65.938 885.288 65.1967 881.303 65.1967C877.226 65.1967 873.612 65.9844 870.461 67.5597C867.311 69.0424 864.623 71.1737 862.399 73.9537C860.268 76.641 858.6 79.9307 857.395 83.8227C856.283 87.622 855.727 91.8384 855.727 96.4717ZM929.258 96.4717C929.258 104.719 928.007 111.993 925.505 118.295C923.096 124.503 919.76 129.739 915.497 134.002C911.235 138.172 906.138 141.322 900.207 143.454C894.369 145.585 888.068 146.651 881.303 146.651C874.724 146.651 868.515 145.585 862.677 143.454C856.839 141.322 851.743 138.172 847.387 134.002C843.032 129.739 839.603 124.503 837.101 118.295C834.599 111.993 833.348 104.719 833.348 96.4717C833.348 88.2244 834.646 80.9964 837.24 74.7877C839.835 68.4864 843.31 63.2044 847.665 58.9417C852.113 54.679 857.21 51.482 862.955 49.3507C868.793 47.2194 874.909 46.1537 881.303 46.1537C887.883 46.1537 894.091 47.2194 899.929 49.3507C905.767 51.482 910.864 54.679 915.219 58.9417C919.575 63.2044 923.003 68.4864 925.505 74.7877C928.007 80.9964 929.258 88.2244 929.258 96.4717ZM973.605 128.164C976.663 128.164 979.165 127.932 981.111 127.469C983.15 126.913 984.771 126.218 985.976 125.384C987.181 124.457 988.015 123.391 988.478 122.187C988.941 120.982 989.173 119.638 989.173 118.156C989.173 115.005 987.69 112.41 984.725 110.372C981.76 108.24 976.663 105.97 969.435 103.561C966.284 102.449 963.134 101.198 959.983 99.8077C956.832 98.325 954.006 96.518 951.504 94.3867C949.002 92.1627 946.963 89.5217 945.388 86.4637C943.813 83.313 943.025 79.5137 943.025 75.0657C943.025 70.6177 943.859 66.633 945.527 63.1117C947.195 59.4977 949.558 56.4397 952.616 53.9377C955.674 51.4357 959.381 49.536 963.736 48.2387C968.091 46.8487 973.003 46.1537 978.47 46.1537C984.957 46.1537 990.563 46.8487 995.289 48.2387C1000.01 49.6287 1003.91 51.1577 1006.96 52.8257L1000.71 69.9227C998.023 68.5327 995.011 67.328 991.675 66.3087C988.432 65.1967 984.493 64.6407 979.86 64.6407C974.671 64.6407 970.918 65.382 968.601 66.8647C966.377 68.2547 965.265 70.4324 965.265 73.3977C965.265 75.1584 965.682 76.641 966.516 77.8457C967.35 79.0504 968.508 80.1624 969.991 81.1817C971.566 82.1084 973.327 82.9887 975.273 83.8227C977.312 84.564 979.536 85.3517 981.945 86.1857C986.949 88.039 991.304 89.8924 995.011 91.7457C998.718 93.5064 1001.78 95.5914 1004.18 98.0007C1006.69 100.41 1008.54 103.236 1009.74 106.48C1010.95 109.723 1011.55 113.661 1011.55 118.295C1011.55 127.283 1008.4 134.28 1002.1 139.284C995.799 144.195 986.3 146.651 973.605 146.651C969.342 146.651 965.497 146.373 962.068 145.817C958.639 145.353 955.581 144.751 952.894 144.01C950.299 143.268 948.029 142.481 946.083 141.647C944.23 140.813 942.654 140.025 941.357 139.284L947.473 122.048C950.346 123.623 953.867 125.059 958.037 126.357C962.3 127.561 967.489 128.164 973.605 128.164Z" fill="#282A37"/>
<rect width="274.422" height="12.7047" fill="#F80533"/>
<rect x="274.422" y="172.783" width="740" height="12.7047" fill="#F80533"/>
</svg>
